<svg xmlns="http://www.w3.org/2000/svg" width="101" height="65" viewBox="0 0 101 65" fill="none">
<g clip-path="url(#clip0_9_694)">
<path d="M57.1313 7.55839L55.9275 13.6708H48.8881L47.5108 20.573H41.1039L42.471 13.6708H35.4316L36.6354 7.55839H43.685L45.0521 0.645996H51.4692L50.0919 7.55839H57.1313Z" fill="#1741FF"/>
<path d="M36.7273 64.1292C42.3617 64.1292 46.9293 59.5376 46.9293 53.8735C46.9293 48.2093 42.3617 43.6177 36.7273 43.6177C31.0928 43.6177 26.5252 48.2093 26.5252 53.8735C26.5252 59.5376 31.0928 64.1292 36.7273 64.1292Z" fill="#1741FF"/>
<path d="M67.3333 64.1292C72.9678 64.1292 77.5354 59.5376 77.5354 53.8735C77.5354 48.2093 72.9678 43.6177 67.3333 43.6177C61.6989 43.6177 57.1313 48.2093 57.1313 53.8735C57.1313 59.5376 61.6989 64.1292 67.3333 64.1292Z" fill="#1741FF"/>
<path d="M24.4849 38.4898C30.1193 38.4898 34.6869 33.8982 34.6869 28.234C34.6869 22.5699 30.1193 17.9783 24.4849 17.9783C18.8504 17.9783 14.2828 22.5699 14.2828 28.234C14.2828 33.8982 18.8504 38.4898 24.4849 38.4898Z" fill="#1741FF"/>
<path d="M90.798 38.4898C96.4324 38.4898 101 33.8982 101 28.234C101 22.5699 96.4324 17.9783 90.798 17.9783C85.1635 17.9783 80.5959 22.5699 80.5959 28.234C80.5959 33.8982 85.1635 38.4898 90.798 38.4898Z" fill="#1741FF"/>
<path d="M67.3333 38.4898C72.9678 38.4898 77.5354 33.8982 77.5354 28.234C77.5354 22.5699 72.9678 17.9783 67.3333 17.9783C61.6989 17.9783 57.1313 22.5699 57.1313 28.234C57.1313 33.8982 61.6989 38.4898 67.3333 38.4898Z" fill="#1741FF"/>
<path d="M10.202 64.1292C15.8364 64.1292 20.404 59.5376 20.404 53.8735C20.404 48.2093 15.8364 43.6177 10.202 43.6177C4.5676 43.6177 0 48.2093 0 53.8735C0 59.5376 4.5676 64.1292 10.202 64.1292Z" fill="#1741FF"/>
</g>
<defs>
<clipPath id="clip0_9_694">
<rect width="101" height="63.4833" fill="white" transform="translate(0 0.645996)"/>
</clipPath>
</defs>
</svg>