<svg width="469" height="79" viewBox="0 0 469 79" fill="none" xmlns="http://www.w3.org/2000/svg">
<path d="M0.684375 77.1064V4.10644H23.2844L39.9844 45.1064H41.8844L58.3844 4.10644H81.3844V77.1064H65.1844V14.8064L67.4844 15.0064L48.1844 62.3064H32.5844L13.1844 15.0064L15.6844 14.8064V77.1064H0.684375ZM121.955 79.0064C117.288 79.0064 113.155 78.2064 109.555 76.6064C106.021 75.0064 103.055 72.8731 100.655 70.2064C98.3214 67.4731 96.5214 64.4398 95.2547 61.1064C94.0547 57.7064 93.4547 54.2398 93.4547 50.7064V48.7064C93.4547 45.0398 94.0547 41.5398 95.2547 38.2064C96.5214 34.8064 98.3214 31.7731 100.655 29.1064C102.988 26.4398 105.888 24.3398 109.355 22.8064C112.888 21.2064 116.888 20.4064 121.355 20.4064C127.221 20.4064 132.155 21.7398 136.155 24.4064C140.221 27.0064 143.321 30.4398 145.455 34.7064C147.588 38.9064 148.655 43.5064 148.655 48.5064V53.9064H100.155V44.8064H138.955L133.755 49.0064C133.755 45.7398 133.288 42.9398 132.355 40.6064C131.421 38.2731 130.021 36.5064 128.155 35.3064C126.355 34.0398 124.088 33.4064 121.355 33.4064C118.555 33.4064 116.188 34.0398 114.255 35.3064C112.321 36.5731 110.855 38.4398 109.855 40.9064C108.855 43.3064 108.355 46.2731 108.355 49.8064C108.355 53.0731 108.821 55.9398 109.755 58.4064C110.688 60.8064 112.155 62.6731 114.155 64.0064C116.155 65.3398 118.755 66.0064 121.955 66.0064C124.888 66.0064 127.288 65.4398 129.155 64.3064C131.021 63.1731 132.288 61.7731 132.955 60.1064H147.655C146.855 63.7731 145.288 67.0398 142.955 69.9064C140.621 72.7731 137.688 75.0064 134.155 76.6064C130.621 78.2064 126.555 79.0064 121.955 79.0064ZM181.857 78.9064C177.99 78.9064 174.457 78.2064 171.257 76.8064C168.124 75.4064 165.39 73.4731 163.057 71.0064C160.724 68.4731 158.924 65.5064 157.657 62.1064C156.457 58.7064 155.857 55.0398 155.857 51.1064V48.8064C155.857 44.8731 156.424 41.2064 157.557 37.8064C158.757 34.4064 160.457 31.4398 162.657 28.9064C164.924 26.3064 167.624 24.3064 170.757 22.9064C173.89 21.4398 177.39 20.7064 181.257 20.7064C185.657 20.7064 189.457 21.6731 192.657 23.6064C195.857 25.4731 198.357 28.2731 200.157 32.0064C201.957 35.6731 202.957 40.2064 203.157 45.6064L198.957 41.7064V4.10644H215.057V77.1064H202.357V54.4064H204.557C204.357 59.6064 203.257 64.0398 201.257 67.7064C199.324 71.3731 196.69 74.1731 193.357 76.1064C190.024 77.9731 186.19 78.9064 181.857 78.9064ZM185.857 65.5064C188.324 65.5064 190.557 64.9731 192.557 63.9064C194.624 62.7731 196.257 61.1398 197.457 59.0064C198.724 56.8731 199.357 54.3064 199.357 51.3064V47.6064C199.357 44.6731 198.724 42.2064 197.457 40.2064C196.19 38.2064 194.524 36.6731 192.457 35.6064C190.39 34.5398 188.157 34.0064 185.757 34.0064C183.09 34.0064 180.69 34.7064 178.557 36.1064C176.49 37.4398 174.857 39.3064 173.657 41.7064C172.457 44.0398 171.857 46.7731 171.857 49.9064C171.857 53.1064 172.457 55.8731 173.657 58.2064C174.857 60.5398 176.524 62.3398 178.657 63.6064C180.79 64.8731 183.19 65.5064 185.857 65.5064ZM232.17 77.1064V22.3064H248.17V77.1064H232.17ZM224.87 34.1064V22.3064H248.17V34.1064H224.87ZM238.37 16.9064C235.37 16.9064 233.136 16.1398 231.67 14.6064C230.27 13.0064 229.57 11.0064 229.57 8.60644C229.57 6.13977 230.27 4.13977 231.67 2.60644C233.136 1.00644 235.37 0.20644 238.37 0.20644C241.37 0.20644 243.57 1.00644 244.97 2.60644C246.436 4.13977 247.17 6.13977 247.17 8.60644C247.17 11.0064 246.436 13.0064 244.97 14.6064C243.57 16.1398 241.37 16.9064 238.37 16.9064ZM287.568 79.0064C282.835 79.0064 278.701 78.2398 275.168 76.7064C271.701 75.1064 268.801 72.9731 266.468 70.3064C264.135 67.6398 262.401 64.6398 261.268 61.3064C260.135 57.9064 259.568 54.4064 259.568 50.8064V48.9064C259.568 45.1731 260.168 41.6064 261.368 38.2064C262.568 34.7398 264.335 31.6731 266.668 29.0064C269.001 26.3398 271.901 24.2398 275.368 22.7064C278.901 21.1731 282.935 20.4064 287.468 20.4064C292.401 20.4064 296.768 21.3731 300.568 23.3064C304.368 25.1731 307.401 27.8064 309.668 31.2064C311.935 34.6064 313.201 38.5064 313.468 42.9064H297.768C297.501 40.4398 296.501 38.3731 294.768 36.7064C293.101 34.9731 290.668 34.1064 287.468 34.1064C284.801 34.1064 282.568 34.7731 280.768 36.1064C279.035 37.4398 277.735 39.2731 276.868 41.6064C276.001 43.9398 275.568 46.7064 275.568 49.9064C275.568 52.8398 275.968 55.5064 276.768 57.9064C277.568 60.2398 278.835 62.0731 280.568 63.4064C282.368 64.6731 284.701 65.3064 287.568 65.3064C289.701 65.3064 291.501 64.9398 292.968 64.2064C294.501 63.4064 295.701 62.3398 296.568 61.0064C297.501 59.6064 298.068 58.0064 298.268 56.2064H313.868C313.668 60.7398 312.401 64.7398 310.068 68.2064C307.735 71.6064 304.635 74.2731 300.768 76.2064C296.901 78.0731 292.501 79.0064 287.568 79.0064ZM357.201 77.1064V60.9064H354.501V43.3064C354.501 40.5064 353.834 38.4064 352.501 37.0064C351.167 35.6064 349.034 34.9064 346.101 34.9064C344.634 34.9064 342.701 34.9398 340.301 35.0064C337.901 35.0731 335.434 35.1731 332.901 35.3064C330.367 35.4398 328.067 35.5731 326.001 35.7064V22.2064C327.534 22.0731 329.334 21.9398 331.401 21.8064C333.467 21.6731 335.601 21.5731 337.801 21.5064C340.001 21.4398 342.067 21.4064 344.001 21.4064C349.601 21.4064 354.301 22.2064 358.101 23.8064C361.967 25.4064 364.901 27.8398 366.901 31.1064C368.901 34.3064 369.901 38.4398 369.901 43.5064V77.1064H357.201ZM339.701 78.5064C335.767 78.5064 332.301 77.8064 329.301 76.4064C326.367 75.0064 324.067 73.0064 322.401 70.4064C320.734 67.7398 319.901 64.5731 319.901 60.9064C319.901 56.9064 320.934 53.6398 323.001 51.1064C325.067 48.5064 327.967 46.6064 331.701 45.4064C335.434 44.1398 339.734 43.5064 344.601 43.5064H356.301V52.4064H344.501C341.701 52.4064 339.534 53.1064 338.001 54.5064C336.534 55.8398 335.801 57.6731 335.801 60.0064C335.801 62.2064 336.534 64.0064 338.001 65.4064C339.534 66.7398 341.701 67.4064 344.501 67.4064C346.301 67.4064 347.901 67.1064 349.301 66.5064C350.767 65.8398 351.967 64.7398 352.901 63.2064C353.834 61.6731 354.367 59.5398 354.501 56.8064L358.301 60.8064C357.967 64.6064 357.034 67.8064 355.501 70.4064C354.034 73.0064 351.967 75.0064 349.301 76.4064C346.701 77.8064 343.501 78.5064 339.701 78.5064ZM383.476 77.1064V22.3064H396.176V45.9064H395.276C395.276 40.3064 395.976 35.6398 397.376 31.9064C398.776 28.1731 400.876 25.3731 403.676 23.5064C406.476 21.5731 409.909 20.6064 413.976 20.6064H414.676C418.809 20.6064 422.242 21.5731 424.976 23.5064C427.776 25.3731 429.876 28.1731 431.276 31.9064C432.742 35.6398 433.476 40.3064 433.476 45.9064H429.576C429.576 40.3064 430.276 35.6398 431.676 31.9064C433.142 28.1731 435.276 25.3731 438.076 23.5064C440.876 21.5731 444.309 20.6064 448.376 20.6064H449.076C453.209 20.6064 456.676 21.5731 459.476 23.5064C462.342 25.3731 464.509 28.1731 465.976 31.9064C467.442 35.6398 468.176 40.3064 468.176 45.9064V77.1064H452.176V45.0064C452.176 42.0064 451.376 39.5731 449.776 37.7064C448.242 35.8398 446.042 34.9064 443.176 34.9064C440.309 34.9064 438.042 35.8731 436.376 37.8064C434.709 39.6731 433.876 42.1731 433.876 45.3064V77.1064H417.776V45.0064C417.776 42.0064 416.976 39.5731 415.376 37.7064C413.842 35.8398 411.676 34.9064 408.876 34.9064C405.942 34.9064 403.642 35.8731 401.976 37.8064C400.309 39.6731 399.476 42.1731 399.476 45.3064V77.1064H383.476Z" fill="#0049F9"/>
</svg>
